HIERARCHY
ROOT Hips
{
 OFFSET 0.000000 0.000000 0.000000
 CHANNELS 6 Xposition Yposition Zposition Yrotation Xrotation Zrotation
 JOINT Chest
 {
  OFFSET 0.000000 9.585900 0.002600
  CHANNELS 3 Yrotation Xrotation Zrotation
  JOINT Chest2
  {
   OFFSET 0.000000 9.601200 -0.005300
   CHANNELS 3 Yrotation Xrotation Zrotation
   JOINT Chest3
   {
    OFFSET 0.000000 9.561800 0.000000
    CHANNELS 3 Yrotation Xrotation Zrotation
    JOINT Chest4
    {
     OFFSET 0.000000 9.552100 0.000000
     CHANNELS 3 Yrotation Xrotation Zrotation
     JOINT Neck
     {
      OFFSET 0.000000 14.453000 0.000000
      CHANNELS 3 Yrotation Xrotation Zrotation
      JOINT Head
      {
       OFFSET 0.000000 8.936500 -0.011300
       CHANNELS 3 Yrotation Xrotation Zrotation
       End Site
       {
        OFFSET 0.000000 17.073600 -0.006000
       }
      }
     }
     JOINT RightCollar
     {
      OFFSET -2.921100 9.558500 0.000000
      CHANNELS 3 Yrotation Xrotation Zrotation
      JOINT RightShoulder
      {
       OFFSET -13.519700 0.000000 0.000000
       CHANNELS 3 Yrotation Xrotation Zrotation
       JOINT RightElbow
       {
        OFFSET 0.000000 -29.696600 0.000000
        CHANNELS 3 Yrotation Xrotation Zrotation
        JOINT RightWrist
        {
         OFFSET 0.000000 -24.004700 0.000000
         CHANNELS 3 Yrotation Xrotation Zrotation
         End Site
         {
          OFFSET 0.000000 -17.728500 0.000000
         }
        }
       }
      }
     }
     JOINT LeftCollar
     {
      OFFSET 2.921100 9.558500 0.000000
      CHANNELS 3 Yrotation Xrotation Zrotation
      JOINT LeftShoulder
      {
       OFFSET 13.519700 0.000000 0.000000
       CHANNELS 3 Yrotation Xrotation Zrotation
       JOINT LeftElbow
       {
        OFFSET 0.000000 -29.696600 0.000000
        CHANNELS 3 Yrotation Xrotation Zrotation
        JOINT LeftWrist
        {
         OFFSET 0.000000 -24.004700 0.000000
         CHANNELS 3 Yrotation Xrotation Zrotation
         End Site
         {
          OFFSET 0.000000 -17.728500 0.000000
         }
        }
       }
      }
     }
    }
   }
  }
 }
 JOINT RightHip
 {
  OFFSET -7.771700 -0.012900 -0.001300
  CHANNELS 3 Yrotation Xrotation Zrotation
  JOINT RightKnee
  {
   OFFSET 0.000000 -40.869800 0.001200
   CHANNELS 3 Yrotation Xrotation Zrotation
   JOINT RightAnkle
   {
    OFFSET 0.000000 -39.717900 0.002100
    CHANNELS 3 Yrotation Xrotation Zrotation
    JOINT RightToe
    {
     OFFSET 0.000000 -4.965400 11.033500
     CHANNELS 3 Yrotation Xrotation Zrotation
     End Site
     {
      OFFSET 0.000000 -1.423100 5.872300
     }
    }
   }
  }
 }
 JOINT LeftHip
 {
  OFFSET 7.771700 -0.012900 -0.001300
  CHANNELS 3 Yrotation Xrotation Zrotation
  JOINT LeftKnee
  {
   OFFSET 0.000000 -40.869800 0.001200
   CHANNELS 3 Yrotation Xrotation Zrotation
   JOINT LeftAnkle
   {
    OFFSET 0.000000 -39.717900 0.002100
    CHANNELS 3 Yrotation Xrotation Zrotation
    JOINT LeftToe
    {
     OFFSET 0.000000 -4.965400 11.033500
     CHANNELS 3 Yrotation Xrotation Zrotation
     End Site
     {
      OFFSET 0.000000 -1.423100 5.872300
     }
    }
   }
  }
 }
}
MOTION
Frames: 8
Frame Time: 0.008333
0.000000 85.388000 0.000000 0.000000 -5.767877 0.000000 0.000000 11.653817 0.000000 0.000000 -5.885947 0.000000 0.000000 -0.000000 0.000000 0.000000 -0.000000 0.000000 0.000000 12.528835 0.000000 0.000000 0.711642 0.000000 0.000000 -0.000000 0.000000 0.000000 0.000000 -90.000000 0.000000 -2.309062 0.000000 0.000000 2.309062 0.000000 0.000000 -0.000000 0.000000 0.000000 -0.000000 90.000000 0.000000 -2.309062 0.000000 0.000000 2.309062 0.000000 0.000000 8.520406 0.000000 0.000000 1.905762 0.000000 -0.000000 -4.658285 0.000000 0.000000 -0.000000 0.000000 0.000000 8.520406 0.000000 0.000000 1.905762 0.000000 -0.000000 -4.658285 0.000000 0.000000 -0.000000 0.000000
-185.945670 58.036739 29.251345 169.883908 -48.464682 -3.154413 5.487773 21.418302 3.387795 2.870536 12.271515 1.692251 3.664203 15.322214 2.234607 2.863896 12.271741 1.704713 -1.563522 13.816879 1.563758 -3.558684 -10.065351 3.559103 0.629399 4.618152 0.552345 0.231472 -13.045476 -8.070081 -91.847175 -70.717298 130.752820 4.719284 23.540798 -21.013646 -8.669290 1.345231 -0.533566 1.814335 -9.415006 14.415371 68.327983 -62.533676 -114.509473 -0.147679 3.775724 10.685714 3.456806 -24.311866 1.203614 -37.184323 73.091481 -38.149406 7.005000 -12.035667 9.116977 0.037406 -0.167130 0.009935 0.416065 -22.968182 13.682448 51.693787 80.039934 52.000045 3.861915 -16.341678 -15.608783 0.045847 0.143357 0.017495
-185.946686 58.035584 29.251629 169.878775 -48.444017 -3.146886 5.505115 21.392219 3.369148 2.864217 12.271745 1.704885 3.675096 15.313417 2.221497 2.883099 12.252561 1.669237 -1.544766 13.831833 1.640259 -3.468274 -10.062385 3.700808 0.623588 4.625034 0.563884 0.205307 -13.023640 -8.035406 -91.831137 -70.699602 130.751441 4.710951 23.528866 -21.025917 -8.623444 1.365912 -0.516281 1.828822 -9.440416 14.394847 68.308931 -62.534319 -114.528314 -0.154560 3.775892 10.647386 3.458120 -24.333786 1.195194 -37.191287 73.089909 -38.156926 7.005461 -12.032378 9.125946 0.051848 -0.167762 0.004438 0.421900 -22.989423 13.675060 51.681480 80.041888 51.994561 3.862597 -16.342344 -15.613559 0.049863 0.143222 0.020160
-185.947955 58.036708 29.249707 169.881618 -48.439512 -3.140540 5.519684 21.384503 3.351935 2.874414 12.261622 1.696111 3.672656 15.312152 2.231974 2.894261 12.240819 1.648240 -1.522173 13.841959 1.700854 -3.373252 -10.038727 3.847410 0.625045 4.620049 0.565065 0.184975 -12.998208 -8.008064 -91.793474 -70.708633 130.774114 4.666271 23.497521 -21.096523 -8.602688 1.381011 -0.499889 1.881714 -9.465837 14.353874 68.284882 -62.533187 -114.545248 -0.161011 3.775152 10.616102 3.459402 -24.337371 1.185119 -37.200577 73.093665 -38.164679 6.996356 -12.033572 9.125979 0.035273 -0.169758 0.004619 0.424707 -22.992284 13.655515 51.694977 80.035771 52.015252 3.869639 -16.340824 -15.616139 0.048359 0.142454 0.016933
-185.948924 58.036882 29.248695 169.886239 -48.426135 -3.136795 5.532461 21.370020 3.333539 2.905687 12.237694 1.661360 3.672196 15.309743 2.252300 2.884389 12.251186 1.686805 -1.462639 13.834185 1.735337 -3.302888 -9.994723 3.999476 0.661255 4.585107 0.489378 0.138133 -12.958954 -7.935744 -91.781260 -70.701845 130.779989 4.661045 23.487777 -21.077888 -8.595956 1.385761 -0.494614 1.948042 -9.487778 14.301014 68.283349 -62.523368 -114.569037 -0.175219 3.782269 10.597507 3.458424 -24.348926 1.174814 -37.212449 73.094474 -38.178217 7.003659 -12.039068 9.129650 0.027246 -0.167640 0.005161 0.423281 -23.005971 13.644541 51.711083 80.034825 52.032660 3.874848 -16.339678 -15.617039 0.046983 0.141230 0.015787
-185.949341 58.037084 29.247836 169.897843 -48.412088 -3.140012 5.537505 21.353222 3.315155 2.905249 12.232706 1.666432 3.688033 15.292127 2.225708 2.893316 12.240563 1.678342 -1.406572 13.854973 1.824435 -3.224509 -9.940487 4.149774 0.675878 4.589218 0.488865 0.119703 -12.940310 -7.893099 -91.769965 -70.689998 130.758722 4.667593 23.483744 -21.069525 -8.567902 1.401485 -0.484003 1.967432 -9.489395 14.286204 68.275359 -62.511701 -114.582499 -0.192938 3.783076 10.588966 3.454096 -24.361065 1.171106 -37.225006 73.099388 -38.187444 6.990447 -12.046699 9.124385 0.037706 -0.164798 0.010156 0.417295 -23.019663 13.637179 51.726896 80.033122 52.049983 3.868144 -16.341845 -15.614982 0.045609 0.141805 0.014889
-185.949030 58.037925 29.246605 169.903132 -48.403947 -3.140925 5.551498 21.336390 3.302814 2.901974 12.232318 1.670539 3.732368 15.250745 2.159202 2.902662 12.231694 1.676197 -1.354040 13.902294 1.965319 -3.141371 -9.880385 4.300842 0.670905 4.619382 0.552043 0.123613 -12.934618 -7.867497 -91.751587 -70.681053 130.718582 4.681168 23.477883 -21.063733 -8.567735 1.441103 -0.432537 1.955919 -9.476952 14.307135 68.325821 -62.473009 -114.616510 -0.222183 3.819084 10.567948 3.451221 -24.368083 1.167143 -37.229326 73.098614 -38.189474 6.993533 -12.043900 9.123425 0.038696 -0.167812 0.009431 0.415279 -23.026804 13.633058 51.739091 80.029114 52.063334 3.863697 -16.342709 -15.613521 0.048270 0.141568 0.014791
-185.949037 58.039481 29.244691 169.914949 -48.402822 -3.143187 5.564619 21.325167 3.292247 2.908957 12.224171 1.661387 3.736015 15.241446 2.147965 2.906741 12.230730 1.680888 -1.254842 13.926415 2.057663 -3.086540 -9.814076 4.448494 0.688884 4.623147 0.554058 0.140339 -12.931197 -7.847725 -91.787443 -70.697165 130.763017 4.652323 23.472415 -21.112390 -8.516893 1.422618 -0.487349 1.905190 -9.442601 14.378041 68.324952 -62.465754 -114.620823 -0.215056 3.766430 10.602800 3.446232 -24.367963 1.160448 -37.255482 73.104230 -38.210807 6.991387 -12.048322 9.116855 0.038276 -0.170643 0.013201 0.409058 -23.027084 13.625366 51.741297 80.027029 52.065052 3.865482 -16.337275 -15.616291 0.048143 0.137868 0.017037
